<?xml version="1.0" standalone="no"?>
<!DOCTYPE svg PUBLIC "-//W3C//DTD SVG 20010904//EN"
 "http://www.w3.org/TR/2001/REC-SVG-20010904/DTD/svg10.dtd">
<svg version="1.0" xmlns="http://www.w3.org/2000/svg"
 width="700.000000pt" height="700.000000pt" viewBox="0 0 700.000000 700.000000"
 preserveAspectRatio="xMidYMid meet">
<metadata>
Created by potrace 1.14, written by Peter Selinger 2001-2017
</metadata>
<g transform="translate(0.000000,700.000000) scale(0.100000,-0.100000)"
fill="#000000" stroke="none">
<path d="M3280 6994 c-19 -2 -84 -9 -145 -14 -639 -62 -1264 -315 -1795 -726
-149 -115 -481 -446 -595 -594 -410 -532 -653 -1132 -727 -1795 -17 -155 -17
-575 0 -730 52 -469 197 -931 418 -1327 288 -519 734 -985 1234 -1291 449
-274 915 -432 1465 -499 133 -16 591 -16 730 0 686 80 1295 330 1820 748 139
111 370 336 490 479 451 534 722 1169 807 1890 16 139 16 595 0 730 -88 728
-352 1347 -803 1885 -123 147 -374 391 -509 496 -532 413 -1098 647 -1760 730
-117 15 -552 27 -630 18z m1308 -2776 l2 -698 -105 0 -105 0 0 83 -1 82 -19
-36 c-28 -53 -77 -99 -135 -125 -67 -32 -189 -33 -269 -3 -115 42 -199 154
-231 304 -19 89 -19 280 -1 367 30 139 106 247 211 298 43 22 64 25 155 25 89
0 111 -3 145 -22 46 -24 93 -72 124 -123 l21 -35 0 286 c0 157 3 289 7 293 4
4 50 5 103 4 l95 -3 3 -697z m474 691 c24 -13 48 -67 48 -107 0 -83 -42 -122
-130 -122 -44 0 -56 5 -81 29 -26 26 -29 36 -29 91 0 55 3 65 29 91 26 25 37
29 86 29 31 0 65 -5 77 -11z m-3648 -64 c97 -20 181 -63 249 -124 31 -29 57
-56 57 -60 0 -4 -32 -35 -70 -70 l-71 -63 -45 42 c-66 61 -142 93 -235 98
-172 10 -269 -53 -269 -173 0 -100 51 -150 186 -181 223 -52 270 -65 319 -88
77 -35 150 -106 174 -170 43 -115 35 -242 -21 -349 -74 -139 -216 -207 -431
-207 -182 0 -297 43 -415 155 l-63 60 70 69 69 69 59 -52 c32 -29 81 -63 109
-77 141 -69 339 -46 402 46 71 105 44 229 -64 283 -17 9 -97 29 -179 46 -230
47 -337 106 -392 219 -25 51 -28 67 -28 162 0 94 3 111 28 161 83 170 319 255
561 204z m826 -210 l0 -135 100 0 100 0 0 -85 0 -85 -100 0 -100 0 0 -325 0
-325 95 0 95 0 0 -80 0 -80 -119 0 c-130 0 -172 10 -214 49 -62 57 -62 55 -65
424 l-3 337 -75 0 -74 0 0 85 0 85 60 0 c51 0 65 4 85 25 24 23 25 31 25 135
l0 110 95 0 95 0 0 -135z m3656 -129 c193 -51 308 -213 321 -451 15 -278 -101
-480 -311 -540 -43 -13 -85 -16 -161 -13 -94 3 -108 6 -178 41 -168 83 -256
264 -244 502 12 235 120 397 302 455 72 23 198 26 271 6z m-3034 -348 c3 -335
4 -344 26 -390 13 -27 38 -56 56 -68 69 -42 186 -35 254 16 62 48 62 48 62
434 l0 350 105 0 105 0 0 -490 0 -490 -105 0 -105 0 0 83 -1 82 -21 -40 c-52
-101 -129 -145 -254 -145 -49 0 -99 6 -129 17 -67 22 -135 92 -166 169 -23 58
-24 66 -27 437 l-3 377 100 0 100 0 3 -342z m2228 -243 l0 -585 -105 0 -105 0
0 -125 0 -125 105 0 106 0 -3 -82 -3 -83 -102 -3 -103 -3 0 -404 0 -405 -100
0 -100 0 0 405 0 405 -75 0 -75 0 0 85 0 85 75 0 75 0 0 123 c0 113 2 128 26
175 30 60 80 99 137 108 l37 7 0 503 0 504 105 0 105 0 0 -585z m-1590 -590
l0 -95 -197 -2 -198 -3 -3 -562 -2 -563 -105 0 -105 0 0 565 0 565 -1045 0
-1045 0 0 95 0 95 1350 0 1350 0 0 -95z m633 -254 c74 -29 164 -112 205 -189
47 -87 65 -170 65 -292 0 -180 -49 -307 -154 -405 -87 -80 -145 -100 -294
-100 -149 0 -207 20 -294 100 -105 98 -154 225 -154 405 0 167 40 285 130 381
55 59 96 86 171 110 81 27 244 21 325 -10z m1689 0 c84 -32 160 -106 202 -195
42 -87 56 -153 56 -256 l0 -80 -335 0 -335 0 0 -52 c0 -101 70 -200 159 -227
55 -16 150 -14 207 6 33 11 67 34 103 71 l54 54 53 -53 c30 -30 54 -60 54 -68
0 -25 -103 -116 -162 -144 -75 -36 -128 -46 -229 -47 -282 -1 -450 190 -450
510 0 224 85 391 236 466 79 38 107 43 225 40 80 -2 119 -8 162 -25z"/>
<path d="M4095 4339 c-60 -15 -109 -54 -141 -112 -26 -48 -29 -62 -32 -183 -7
-207 20 -285 115 -341 98 -58 263 -28 321 57 21 32 22 42 22 248 0 196 -2 217
-20 247 -41 66 -171 107 -265 84z"/>
<path d="M5675 4335 c-49 -17 -107 -80 -123 -133 -15 -49 -16 -333 -1 -385 13
-49 63 -105 114 -128 53 -25 157 -25 210 0 49 22 98 76 116 128 22 61 19 335
-4 395 -44 114 -183 168 -312 123z"/>
<path d="M3862 2919 c-50 -15 -108 -79 -126 -140 -22 -72 -22 -306 0 -378 28
-96 108 -151 219 -151 71 0 125 20 167 62 54 54 68 112 68 278 0 166 -14 224
-68 278 -21 21 -56 43 -78 50 -48 14 -134 14 -182 1z"/>
<path d="M5545 2921 c-80 -37 -135 -124 -135 -212 l0 -39 228 2 227 3 -3 50
c-4 53 -31 127 -60 158 -51 57 -176 75 -257 38z"/>
</g>
</svg>
