<?xml version="1.0" encoding="UTF-8"?>
<svg id="Layer_2" data-name="Layer 2" xmlns="http://www.w3.org/2000/svg" viewBox="0 0 287.9 150.6">
  <g id="Layer_1-2" data-name="Layer 1">
    <g>
      <path d="m36.2,62.6c-2.27,2-5.63,3-10.1,3-3.8,0-7.18-.77-10.15-2.3-2.97-1.53-5.68-3.8-8.15-6.8l-7.8,7.3c2.93,3.6,6.45,6.47,10.55,8.6,4.1,2.13,9.08,3.2,14.95,3.2,4,0,7.57-.52,10.7-1.55,3.13-1.03,5.78-2.5,7.95-4.4,2.17-1.9,3.82-4.18,4.95-6.85,1.13-2.67,1.7-5.63,1.7-8.9,0-5.6-1.62-10-4.85-13.2-3.23-3.2-8.35-5.47-15.35-6.8l-6.2-1.3c-3.8-.73-6.6-1.82-8.4-3.25-1.8-1.43-2.7-3.62-2.7-6.55s1.1-5.4,3.3-7c2.2-1.6,5.3-2.4,9.3-2.4s7.1.7,9.7,2.1c2.6,1.4,4.8,3.27,6.6,5.6l7.9-7c-2.73-3.47-6.03-6.12-9.9-7.95-3.87-1.83-8.43-2.75-13.7-2.75-3.73,0-7.1.47-10.1,1.4-3,.93-5.55,2.25-7.65,3.95-2.1,1.7-3.73,3.8-4.9,6.3-1.17,2.5-1.75,5.28-1.75,8.35,0,5.6,1.7,10,5.1,13.2,3.4,3.2,8.5,5.43,15.3,6.7l6.2,1.1c4.07.8,6.9,2,8.5,3.6,1.6,1.6,2.4,3.77,2.4,6.5,0,3.4-1.13,6.1-3.4,8.1Z" style="fill: #fff; stroke-width: 0px;"/>
      <path d="m66.3,63.1c0,3.6.97,6.38,2.9,8.35,1.93,1.97,4.8,2.95,8.6,2.95h9.5v-8.9h-10.1V31.3h10.9v-8.9h-10.9v-14.2h-9.8v9.1c0,1.8-.35,3.1-1.05,3.9-.7.8-1.95,1.2-3.75,1.2h-4.4v8.9h8.1v31.8Z" style="fill: #fff; stroke-width: 0px;"/>
      <path d="m116.4,75.6c2.13,0,4.02-.27,5.65-.8,1.63-.53,3.03-1.25,4.2-2.15,1.17-.9,2.13-1.95,2.9-3.15.77-1.2,1.38-2.43,1.85-3.7h.4v8.6h10.9V22.4h-10.9v34.8c0,1.53-.32,2.87-.95,4-.63,1.13-1.47,2.07-2.5,2.8-1.03.73-2.22,1.28-3.55,1.65-1.33.37-2.7.55-4.1.55-6.67,0-10-4.03-10-12.1v-31.7h-10.9v33.1c0,6.47,1.48,11.43,4.45,14.9,2.97,3.47,7.15,5.2,12.55,5.2Z" style="fill: #fff; stroke-width: 0px;"/>
      <path d="m175.5,75.6c3.46,0,6.48-.87,9.05-2.6,2.57-1.73,4.42-4.13,5.55-7.2h.5v8.6h10.9V.4h-10.9v30.6h-.5c-1.13-3.13-2.98-5.55-5.55-7.25-2.57-1.7-5.58-2.55-9.05-2.55-6.6,0-11.7,2.38-15.3,7.15-3.6,4.77-5.4,11.45-5.4,20.05s1.8,15.28,5.4,20.05c3.6,4.77,8.7,7.15,15.3,7.15Zm-9.2-31.7c0-4,1.13-7.22,3.4-9.65,2.27-2.43,5.3-3.65,9.1-3.65,3.33,0,6.13.82,8.4,2.45,2.27,1.63,3.4,3.78,3.4,6.45v17.8c0,2.67-1.13,4.82-3.4,6.45-2.27,1.63-5.07,2.45-8.4,2.45-3.8,0-6.83-1.22-9.1-3.65-2.27-2.43-3.4-5.65-3.4-9.65v-9Z" style="fill: #fff; stroke-width: 0px;"/>
      <path d="m222.6,0c-2.27,0-3.92.53-4.95,1.6-1.03,1.07-1.55,2.43-1.55,4.1v1.7c0,1.67.52,3.03,1.55,4.1,1.03,1.07,2.68,1.6,4.95,1.6s3.9-.53,4.9-1.6c1-1.07,1.5-2.43,1.5-4.1v-1.7c0-1.67-.5-3.03-1.5-4.1-1-1.07-2.63-1.6-4.9-1.6Z" style="fill: #fff; stroke-width: 0px;"/>
      <path d="m217.1,75.52c-3.31.34-5.88,1.48-7.7,3.43-2.2,2.37-3.3,5.65-3.3,9.85v8.6h-7.9v8.9h7.9v43.1h10.9v-43.1h10.9v-8.9h-10.9v-13.1h10.9v-.06h.1V22.4h-10.9v53.12Z" style="fill: #fff; stroke-width: 0px;"/>
      <path d="m286.2,37.15c-1.13-3.37-2.73-6.23-4.8-8.6-2.07-2.37-4.58-4.18-7.55-5.45-2.97-1.27-6.25-1.9-9.85-1.9s-6.88.63-9.85,1.9c-2.97,1.27-5.48,3.08-7.55,5.45-2.07,2.37-3.67,5.23-4.8,8.6-1.13,3.37-1.7,7.12-1.7,11.25s.57,7.88,1.7,11.25c1.13,3.37,2.73,6.23,4.8,8.6,2.07,2.37,4.58,4.18,7.55,5.45,2.97,1.27,6.25,1.9,9.85,1.9s6.88-.63,9.85-1.9c2.97-1.27,5.48-3.08,7.55-5.45,2.07-2.37,3.67-5.23,4.8-8.6,1.13-3.37,1.7-7.12,1.7-11.25s-.57-7.88-1.7-11.25Zm-9.8,15.63c0,4.58-1.13,8-3.4,10.29-2.27,2.29-5.27,3.43-9,3.43s-6.73-1.14-9-3.43c-2.27-2.29-3.4-5.72-3.4-10.29v-8.75c0-4.57,1.13-8,3.4-10.29,2.27-2.29,5.27-3.43,9-3.43s6.73,1.14,9,3.43c2.27,2.29,3.4,5.72,3.4,10.29v8.75Z" style="fill: #fff; stroke-width: 0px;"/>
      <polygon points=".97 89.6 111.8 89.6 111.8 149.4 123.1 149.4 123.1 89.6 143.9 89.6 143.9 79.6 .97 79.6 .97 89.6" style="fill: #fff; stroke-width: 0px;"/>
      <path d="m185.4,103.55c-2.07-2.37-4.58-4.18-7.55-5.45-2.97-1.27-6.25-1.9-9.85-1.9s-6.88.63-9.85,1.9c-2.97,1.27-5.48,3.08-7.55,5.45-2.07,2.37-3.67,5.23-4.8,8.6-1.13,3.37-1.7,7.12-1.7,11.25s.57,7.88,1.7,11.25c1.13,3.37,2.73,6.23,4.8,8.6,2.07,2.37,4.58,4.18,7.55,5.45,2.97,1.27,6.25,1.9,9.85,1.9s6.88-.63,9.85-1.9c2.97-1.27,5.48-3.08,7.55-5.45,2.07-2.37,3.67-5.23,4.8-8.6,1.13-3.37,1.7-7.12,1.7-11.25s-.57-7.88-1.7-11.25c-1.13-3.37-2.73-6.23-4.8-8.6Zm-5,24.23c0,4.57-1.13,8-3.4,10.29-2.27,2.29-5.27,3.43-9,3.43s-6.73-1.14-9-3.43c-2.27-2.29-3.4-5.72-3.4-10.29v-8.75c0-4.57,1.13-8,3.4-10.29,2.27-2.29,5.27-3.43,9-3.43s6.73,1.14,9,3.43c2.27,2.29,3.4,5.72,3.4,10.29v8.75Z" style="fill: #fff; stroke-width: 0px;"/>
      <path d="m274.7,103.75c-1.93-2.37-4.35-4.22-7.25-5.55-2.9-1.33-6.25-2-10.05-2s-7.07.63-10,1.9c-2.93,1.27-5.43,3.08-7.5,5.45-2.07,2.37-3.65,5.23-4.75,8.6-1.1,3.37-1.65,7.12-1.65,11.25s.55,7.88,1.65,11.25c1.1,3.37,2.68,6.23,4.75,8.6,2.07,2.37,4.57,4.18,7.5,5.45,2.93,1.27,6.27,1.9,10,1.9,4.87,0,9.13-.95,12.8-2.86,3.67-1.91,6.47-4.46,8.4-7.67l-6.4-6.32c-1.53,2.38-3.4,4.27-5.6,5.66-2.2,1.39-4.9,2.09-8.1,2.09-4.4,0-7.78-1.27-10.15-3.82-2.37-2.55-3.55-5.81-3.55-9.79v-1.69h35.7v-4.1c0-3.6-.48-6.97-1.45-10.1-.97-3.13-2.42-5.88-4.35-8.25Zm-5.7,15.25h-24.2v-.7c0-2,.3-3.83.9-5.5.6-1.67,1.45-3.1,2.55-4.3,1.1-1.2,2.43-2.13,4-2.8,1.57-.67,3.28-1,5.15-1,3.6,0,6.43,1.22,8.5,3.65,2.07,2.43,3.1,5.65,3.1,9.65v1Z" style="fill: #fff; stroke-width: 0px;"/>
    </g>
  </g>
</svg>